<svg width="32.000000" height="32.000000" viewBox="0 0 32 32" fill="none" xmlns="http://www.w3.org/2000/svg" xmlns:xlink="http://www.w3.org/1999/xlink">
	<desc>
			Created with Pixso.
	</desc>
	<defs/>
	<rect id="Solid" width="32.000000" height="32.000000" fill="#FFFFFF" fill-opacity="0"/>
	<path id="Union" d="M21.42 11.99C21.81 11.6 21.81 10.96 21.42 10.57C21.03 10.18 20.39 10.18 20 10.57L15.99 14.58L11.99 10.57C11.6 10.18 10.96 10.18 10.57 10.57C10.18 10.96 10.18 11.6 10.57 11.99L14.58 16L10.57 20C10.18 20.39 10.18 21.03 10.57 21.42C10.96 21.81 11.6 21.81 11.99 21.42L15.99 17.41L20 21.42C20.39 21.81 21.03 21.81 21.42 21.42C21.81 21.03 21.81 20.39 21.42 20L17.41 16L21.42 11.99Z" fill="#272727" fill-opacity="1.000000" fill-rule="nonzero"/>
</svg>
