<svg viewBox="0 0 32 28" xmlns="http://www.w3.org/2000/svg" xmlns:xlink="http://www.w3.org/1999/xlink" width="32.000000" height="28.000000" fill="none">
	<rect id="fa6-solid:basket-shopping" width="32.000000" height="28.000000" x="0.000000" y="0.000000" fill="rgb(255,255,255)" fill-opacity="0" />
	<path id="Vector" d="M14.0722 1.91943C14.4111 1.27412 14.1556 0.481152 13.5056 0.147558C12.8556 -0.186036 12.0444 0.0655266 11.7056 0.70537L6.53333 10.4999L1.77778 10.4999C0.794444 10.4999 0 11.2819 0 12.2499C0 13.2179 0.794444 13.9999 1.77778 13.9999L4.66111 25.3476C5.05556 26.9062 6.47778 27.9999 8.11111 27.9999L23.8889 27.9999C25.5222 27.9999 26.9444 26.9062 27.3389 25.3476L30.2222 13.9999C31.2056 13.9999 32 13.2179 32 12.2499C32 11.2819 31.2056 10.4999 30.2222 10.4999L25.4667 10.4999L20.2944 0.70537C19.9556 0.0655266 19.15 -0.186036 18.4944 0.147558C17.8389 0.481152 17.5889 1.27412 17.9278 1.91943L22.4611 10.4999L9.53889 10.4999L14.0722 1.91943ZM10.6667 16.6249L10.6667 21.8749C10.6667 22.3562 10.2667 22.7499 9.77778 22.7499C9.28889 22.7499 8.88889 22.3562 8.88889 21.8749L8.88889 16.6249C8.88889 16.1437 9.28889 15.7499 9.77778 15.7499C10.2667 15.7499 10.6667 16.1437 10.6667 16.6249ZM16 15.7499C16.4889 15.7499 16.8889 16.1437 16.8889 16.6249L16.8889 21.8749C16.8889 22.3562 16.4889 22.7499 16 22.7499C15.5111 22.7499 15.1111 22.3562 15.1111 21.8749L15.1111 16.6249C15.1111 16.1437 15.5111 15.7499 16 15.7499ZM23.1111 16.6249L23.1111 21.8749C23.1111 22.3562 22.7111 22.7499 22.2222 22.7499C21.7333 22.7499 21.3333 22.3562 21.3333 21.8749L21.3333 16.6249C21.3333 16.1437 21.7333 15.7499 22.2222 15.7499C22.7111 15.7499 23.1111 16.1437 23.1111 16.6249Z" fill="rgb(252,252,252)" fill-rule="nonzero" />
</svg>
