<svg viewBox="0 0 32 32" xmlns="http://www.w3.org/2000/svg" xmlns:xlink="http://www.w3.org/1999/xlink" width="32.000000" height="32.000000" fill="none">
	<rect id="fluent:certificate-24-filled" width="32.000000" height="32.000000" x="0.000000" y="0.000000" fill="rgb(255,255,255)" fill-opacity="0" />
	<path id="Vector" d="M6.33237 4C5.35991 4 4.42728 4.38631 3.73965 5.07394C3.05201 5.76158 2.66571 6.69421 2.66571 7.66667L2.66571 14.6667C3.72657 13.2522 5.30589 12.3171 7.05623 12.067C8.80657 11.817 10.5846 12.2725 11.999 13.3333C13.4135 14.3942 14.3487 15.9735 14.5987 17.7239C14.8488 19.4742 14.3932 21.2522 13.3324 22.6667L13.3324 24L25.6657 24C26.6382 24 27.5708 23.6137 28.2584 22.9261C28.9461 22.2384 29.3324 21.3058 29.3324 20.3333L29.3324 7.66667C29.3324 6.69421 28.9461 5.76158 28.2584 5.07394C27.5708 4.38631 26.6382 4 25.6657 4L6.33237 4ZM8.99904 9.33333L22.999 9.33333C23.2643 9.33333 23.5186 9.43869 23.7061 9.62623C23.8937 9.81376 23.999 10.0681 23.999 10.3333C23.999 10.5985 23.8937 10.8529 23.7061 11.0404C23.5186 11.228 23.2643 11.3333 22.999 11.3333L8.99904 11.3333C8.73382 11.3333 8.47947 11.228 8.29193 11.0404C8.1044 10.8529 7.99904 10.5985 7.99904 10.3333C7.99904 10.0681 8.1044 9.81376 8.29193 9.62623C8.47947 9.43869 8.73382 9.33333 8.99904 9.33333ZM15.999 17C15.999 16.7348 16.1044 16.4804 16.2919 16.2929C16.4795 16.1054 16.7338 16 16.999 16L22.999 16C23.2643 16 23.5186 16.1054 23.7061 16.2929C23.8937 16.4804 23.999 16.7348 23.999 17C23.999 17.2652 23.8937 17.5196 23.7061 17.7071C23.5186 17.8946 23.2643 18 22.999 18L16.999 18C16.7338 18 16.4795 17.8946 16.2919 17.7071C16.1044 17.5196 15.999 17.2652 15.999 17ZM7.99904 13.3333C6.58437 13.3333 5.22765 13.8953 4.22733 14.8956C3.22701 15.8959 2.66504 17.2527 2.66504 18.6673C2.66504 20.082 3.22701 21.4387 4.22733 22.439C5.22765 23.4394 6.58437 24.0013 7.99904 24.0013C9.4137 24.0013 10.7704 23.4394 11.7707 22.439C12.7711 21.4387 13.333 20.082 13.333 18.6673C13.333 17.2527 12.7711 15.8959 11.7707 14.8956C10.7704 13.8953 9.4137 13.3333 7.99904 13.3333ZM11.999 24.0013C10.8857 24.8387 9.50037 25.3347 7.99904 25.3347C6.55653 25.3376 5.15235 24.8704 3.99904 24.004L3.99904 28.332C3.99904 29.092 4.80571 29.5587 5.45237 29.224L5.57237 29.1507L7.99904 27.4547L10.4257 29.1507C10.5658 29.2485 10.7287 29.3088 10.8988 29.3258C11.0689 29.3428 11.2405 29.3159 11.3972 29.2477C11.5539 29.1795 11.6906 29.0723 11.7941 28.9362C11.8976 28.8002 11.9645 28.6399 11.9884 28.4707L11.999 28.332L12.0004 24L11.999 24.0013Z" fill="rgb(252,252,252)" fill-rule="nonzero" />
</svg>
