<svg viewBox="0 0 32 32" xmlns="http://www.w3.org/2000/svg" xmlns:xlink="http://www.w3.org/1999/xlink" width="32.000000" height="32.000000" fill="none">
	<rect id="mingcute:leaf-3-fill" width="32.000000" height="32.000000" x="0.000000" y="0.000000" fill="rgb(255,255,255)" fill-opacity="0" />
	<g id="Group">
		<path id="Vector" d="M32 0L32 32L0 32L0 0L32 0ZM16.792 31.0107L16.776 31.0133L16.6813 31.06L16.6547 31.0653L16.636 31.06L16.5413 31.012C16.528 31.008 16.516 31.012 16.5093 31.02L16.504 31.0333L16.4813 31.604L16.488 31.6307L16.5013 31.648L16.64 31.7467L16.66 31.752L16.676 31.7467L16.8147 31.648L16.8307 31.6267L16.836 31.604L16.8133 31.0347C16.8107 31.0213 16.8013 31.012 16.792 31.0107ZM17.144 30.86L17.1253 30.8627L16.88 30.9867L16.8667 31L16.8627 31.0147L16.8867 31.588L16.8933 31.604L16.904 31.6147L17.172 31.7373C17.188 31.7427 17.2027 31.7373 17.2107 31.7267L17.216 31.708L17.1707 30.8893C17.1667 30.8733 17.1573 30.8627 17.144 30.86ZM16.1907 30.8627C16.1846 30.8599 16.1778 30.8592 16.1713 30.8607C16.1648 30.8621 16.159 30.8656 16.1547 30.8707L16.1467 30.8893L16.1013 31.708C16.1013 31.724 16.1107 31.7347 16.124 31.74L16.144 31.7373L16.412 31.6133L16.4253 31.6027L16.4293 31.588L16.4533 31.0147L16.4493 30.9987L16.436 30.9853L16.1907 30.8627Z" fill-rule="evenodd" />
		<path id="Vector" d="M16.942 17.7253L21.4474 22.2306C22.0294 22.8126 22.4258 23.5541 22.5864 24.3614C22.747 25.1686 22.6645 26.0054 22.3496 26.7658C22.0346 27.5262 21.5012 28.1762 20.8168 28.6334C20.1324 29.0907 19.3278 29.3347 18.5047 29.3346L18.2367 29.3346C17.4503 29.3361 16.6778 29.1271 15.9994 28.7293C15.3209 29.1271 14.5484 29.3361 13.762 29.3346L13.4953 29.3346C12.6722 29.335 11.8674 29.0911 11.1828 28.634C10.4982 28.1768 9.96455 27.5269 9.6494 26.7664C9.33425 26.006 9.25172 25.1691 9.41228 24.3617C9.57282 23.5543 9.96923 22.8127 10.5513 22.2306L15.0567 17.724C15.3067 17.474 15.6458 17.3336 15.9994 17.3336C16.3529 17.3336 16.692 17.474 16.942 17.724L16.942 17.7253ZM25.1727 9.33464C26.2355 9.33463 27.258 9.74128 28.0306 10.4712C28.8031 11.2011 29.2671 12.1989 29.3274 13.26L29.334 13.496L29.334 13.764C29.3358 14.5504 29.1268 15.323 28.7287 16.0013C29.0647 16.5733 29.2753 17.2293 29.3233 17.9346L29.334 18.2386L29.334 18.5053C29.3345 19.3052 29.1044 20.0884 28.6712 20.7609C28.2381 21.4334 27.6203 21.9668 26.8918 22.2973C26.1634 22.6278 25.3551 22.7413 24.5638 22.6242C23.7724 22.5072 23.0316 22.1645 22.43 21.6373L22.23 21.4493L17.7234 16.944C17.494 16.7142 17.3563 16.4087 17.3362 16.0846C17.3161 15.7606 17.4148 15.4404 17.614 15.184L17.7247 15.0586L22.23 10.5533C23.0102 9.77325 24.0695 9.33491 25.1727 9.33464ZM6.82602 9.33464C7.83935 9.33464 8.81268 9.70264 9.56868 10.3653L9.76868 10.5533L14.2754 15.0586C14.5047 15.2884 14.6424 15.594 14.6625 15.918C14.6826 16.242 14.5839 16.5623 14.3847 16.8186L14.274 16.944L9.76868 21.4493C9.20069 22.0166 8.4808 22.4075 7.69574 22.575C6.91067 22.7425 6.09392 22.6794 5.34388 22.3934C4.59384 22.1073 3.9425 21.6105 3.46833 20.9628C2.99416 20.3151 2.71738 19.5441 2.67135 18.7426L2.66602 18.5066L2.66602 18.2386C2.66602 17.4186 2.88868 16.6546 3.27135 16.0013C2.92568 15.4118 2.72208 14.7499 2.67668 14.068L2.66602 13.7653L2.66602 13.4986C2.66567 12.9519 2.77304 12.4105 2.98201 11.9053C3.19098 11.4002 3.49745 10.9411 3.8839 10.5544C4.27035 10.1677 4.72921 9.86095 5.23426 9.65166C5.73931 9.44236 6.27932 9.33464 6.82602 9.33464ZM13.7607 2.66797C14.5471 2.66682 15.3195 2.8758 15.998 3.27331C16.5875 2.92764 17.2495 2.72403 17.9314 2.67864L18.2354 2.66797L18.502 2.66797C19.3019 2.66751 20.0851 2.89763 20.7576 3.33075C21.4301 3.76388 21.9635 4.38167 22.294 5.11015C22.6245 5.83862 22.738 6.64691 22.6209 7.43823C22.5039 8.22956 22.1612 8.97037 21.634 9.57197L21.446 9.77197L16.9407 14.2786C16.7109 14.508 16.4054 14.6457 16.0813 14.6658C15.7573 14.6859 15.4371 14.5871 15.1807 14.388L15.0554 14.2773L10.55 9.77197C9.98219 9.20421 9.59075 8.48429 9.42292 7.69904C9.2551 6.91379 9.31804 6.09676 9.60417 5.34648C9.8903 4.59621 10.3874 3.94474 11.0355 3.47065C11.6836 2.99657 12.455 2.72012 13.2567 2.67464L13.494 2.66797L13.7607 2.66797Z" fill="rgb(252,252,252)" fill-rule="evenodd" />
	</g>
</svg>
