<svg width="39" height="30" viewBox="0 0 39 30" fill="none" xmlns="http://www.w3.org/2000/svg">
<g filter="url(#filter0_d_216_3632)">
<rect x="4.22363" y="0.223626" width="30.5527" height="21.5527" rx="2.45989" fill="#1F72CD" stroke="#D9D9D9" stroke-width="0.447253"/>
<path fill-rule="evenodd" clip-rule="evenodd" d="M9.55765 7.79181L6.65723 14.4347H10.1294L10.5599 13.3755H11.5438L11.9743 14.4347H15.7962V13.6263L16.1368 14.4347H18.1138L18.4543 13.6092V14.4347H26.4029L27.3694 13.403L28.2744 14.4347L32.357 14.4432L29.4474 11.1318L32.357 7.79181H28.3377L27.3969 8.80438L26.5204 7.79181H17.8734L17.1308 9.50638L16.3709 7.79181H12.9059V8.57268L12.5205 7.79181H9.55765ZM21.4271 8.73513H25.9916L27.3876 10.2958L28.8287 8.73513H30.2247L28.1036 11.1309L30.2247 13.499H28.7653L27.3693 11.9202L25.9209 13.499H21.4271V8.73513ZM22.5543 10.5921V9.72197V9.72113H25.4024L26.6451 11.1127L25.3473 12.5119H22.5543V11.562H25.0444V10.5921H22.5543ZM10.2298 8.73513H11.9223L13.8462 13.2397V8.73513H15.7003L17.1862 11.9649L18.5557 8.73513H20.4005V13.5018H19.278L19.2688 9.76666L17.6323 13.5018H16.6281L14.9824 9.76666V13.5018H12.6731L12.2353 12.4332H9.87003L9.43314 13.5009H8.19583L10.2298 8.73513ZM10.2739 11.4452L11.0532 9.54151L11.8316 11.4452H10.2739Z" fill="#FCFCFC"/>
</g>
<defs>
<filter id="filter0_d_216_3632" x="0" y="0" width="39" height="30" filterUnits="userSpaceOnUse" color-interpolation-filters="sRGB">
<feFlood flood-opacity="0" result="BackgroundImageFix"/>
<feColorMatrix in="SourceAlpha" type="matrix" values="0 0 0 0 0 0 0 0 0 0 0 0 0 0 0 0 0 0 127 0" result="hardAlpha"/>
<feOffset dy="4"/>
<feGaussianBlur stdDeviation="2"/>
<feComposite in2="hardAlpha" operator="out"/>
<feColorMatrix type="matrix" values="0 0 0 0 0 0 0 0 0 0 0 0 0 0 0 0 0 0 0.25 0"/>
<feBlend mode="normal" in2="BackgroundImageFix" result="effect1_dropShadow_216_3632"/>
<feBlend mode="normal" in="SourceGraphic" in2="effect1_dropShadow_216_3632" result="shape"/>
</filter>
</defs>
</svg>
