<svg aria-hidden="true" style="position: absolute; width: 0; height: 0; overflow: hidden;" version="1.1" xmlns="http://www.w3.org/2000/svg" xmlns:xlink="http://www.w3.org/1999/xlink">
<defs>
<symbol id="icon-logo" viewBox="0 0 52 32">
<path fill="#6b99c3" style="fill: var(--color1, #6b99c3)" d="M4.179 25.972l-4.179-9.642h3.231l3.066 7.328h0.122l3.068-7.328h3.228l-4.18 9.642h-4.355z"></path>
<path fill="#6b99c3" style="fill: var(--color1, #6b99c3)" d="M16.499 19.764c-0.178 0.101-0.37 0.175-0.57 0.217-0.253 0.062-0.513 0.092-0.773 0.089-0.259 0.003-0.517-0.027-0.769-0.089-0.197-0.043-0.386-0.117-0.561-0.217h-0.122v6.21h2.916v-6.21h-0.12zM16.478 16.431c-0.385-0.277-0.845-0.426-1.316-0.426s-0.932 0.149-1.316 0.426c-0.151 0.134-0.271 0.3-0.354 0.485s-0.126 0.387-0.126 0.59 0.043 0.405 0.126 0.59c0.083 0.185 0.203 0.351 0.354 0.485 0.384 0.279 0.844 0.428 1.316 0.428s0.932-0.15 1.316-0.428c0.151-0.134 0.273-0.299 0.356-0.485s0.126-0.387 0.126-0.591c0-0.204-0.043-0.405-0.126-0.591s-0.204-0.351-0.356-0.485z"></path>
<path fill="#6b99c3" style="fill: var(--color1, #6b99c3)" d="M21.461 26.179c-1.075 0-1.912-0.29-2.511-0.87-0.596-0.572-0.895-1.407-0.895-2.498v-6.591h2.918v1.903h2.357v0.992h-2.357v3.499c-0.010 0.163 0.013 0.326 0.070 0.479s0.143 0.292 0.256 0.408c0.252 0.219 0.577 0.33 0.908 0.311 0.377-0 0.752-0.056 1.114-0.165v2.301c-0.306 0.080-0.617 0.142-0.93 0.185-0.309 0.035-0.619 0.051-0.93 0.048z"></path>
<path fill="#6b99c3" style="fill: var(--color1, #6b99c3)" d="M27.204 26.179c-0.923 0-1.622-0.195-2.097-0.585-0.23-0.183-0.415-0.419-0.539-0.688s-0.184-0.564-0.175-0.861c-0.012-0.347 0.067-0.691 0.229-0.997s0.402-0.562 0.694-0.743c0.616-0.409 1.629-0.636 3.040-0.681 0.511-0.007 1.021-0.044 1.527-0.111 0.237-0.021 0.468-0.092 0.677-0.207 0.054-0.036 0.097-0.085 0.127-0.143s0.045-0.122 0.044-0.187c-0.001-0.069-0.016-0.138-0.044-0.2s-0.069-0.119-0.121-0.165c-0.171-0.135-0.374-0.223-0.589-0.254-0.387-0.074-0.78-0.106-1.174-0.096-0.729-0.001-1.455 0.086-2.164 0.261-0.578 0.131-1.141 0.324-1.677 0.578v-2.359c0.541-0.264 1.114-0.456 1.703-0.572 0.792-0.174 1.6-0.26 2.41-0.254 0.888-0.028 1.774 0.102 2.618 0.385 0.593 0.194 1.112 0.569 1.487 1.074 0.32 0.484 0.484 1.057 0.469 1.64v4.958h-2.918v-1.074h-0.109c-0.234 0.236-0.498 0.438-0.786 0.6-0.374 0.214-0.774 0.378-1.189 0.489-0.471 0.13-0.956 0.194-1.444 0.191zM28.56 24.209c0.578 0.004 1.149-0.127 1.669-0.385 0.182-0.086 0.351-0.197 0.503-0.331v-1.253c-0.1 0.063-0.207 0.113-0.319 0.15-0.19 0.066-0.386 0.115-0.585 0.146-0.271 0.045-0.546 0.070-0.821 0.076-0.416-0.008-0.828 0.083-1.202 0.267-0.106 0.056-0.195 0.141-0.258 0.244s-0.097 0.222-0.1 0.343c-0.002 0.106 0.022 0.211 0.069 0.306s0.116 0.176 0.201 0.238c0.254 0.151 0.548 0.22 0.842 0.198z"></path>
<path fill="#6b99c3" style="fill: var(--color1, #6b99c3)" d="M37.903 16.056h-2.918v9.918h2.918v-9.918z"></path>
<path fill="#6b99c3" style="fill: var(--color1, #6b99c3)" d="M44.895 20.601h-5.602v2.107h5.602v-2.107z"></path>
<path fill="#6b99c3" style="fill: var(--color1, #6b99c3)" d="M44.864 31.926c-1.016-0.009-2.025-0.162-2.999-0.454v-2.466c0.442 0.148 0.894 0.266 1.352 0.352 0.361 0.059 0.727 0.089 1.093 0.089 0.733 0 1.285-0.174 1.669-0.524s0.57-0.881 0.57-1.598v-10.994h2.918v11.090c0 1.479-0.401 2.599-1.202 3.362s-1.934 1.144-3.4 1.144z"></path>
<path fill="#6b99c3" style="fill: var(--color1, #6b99c3)" d="M45.87 6.765c-0.732-0.042-1.464 0.082-2.142 0.363-1.285 0.589-1.392 1.685-1.392 1.685-1.022 6.404-8.751 4.749-8.751 4.749 4.449-1.17 6.163-5.219 6.264-5.48-4.565 5.815-11.354 5.708-13.88 5.436l-1.185-1.681 2.879-0.015c0.926-0.005 1.821-0.339 2.53-0.944l7.198-6.145c-0.315-0.468-0.902-0.987-1.622-1.535 6.748-0.926 6.855 2.553 6.855 2.553 1.12 0.201 2.211 0.545 3.245 1.024z"></path>
<path fill="#6b99c3" style="fill: var(--color1, #6b99c3)" d="M35.661 17.507l-2.080-3.944 1.185-0.004 1.474 3.662-0.578 0.287z"></path>
<path fill="#6b99c3" style="fill: var(--color1, #6b99c3)" d="M45.548 4.599c0.133-0.147 0.276-0.284 0.428-0.411 0.137-0.109 0.28-0.209 0.428-0.3 0.611-0.356 1.079-0.919 1.322-1.59 0.104-0.24 0.132-0.506 0.080-0.763s-0.18-0.491-0.367-0.671c-0.188-0.18-0.426-0.296-0.681-0.333s-0.516 0.007-0.746 0.126c-0.167 0.087-0.308 0.217-0.41 0.377s-0.161 0.344-0.17 0.534c0.083-0.055 0.182-0.080 0.281-0.070 0.082 0.010 0.159 0.043 0.223 0.096s0.111 0.124 0.136 0.204c0.025 0.080 0.027 0.165 0.005 0.246s-0.066 0.154-0.127 0.209-0.137 0.093-0.219 0.106c-0.081 0.013-0.165 0.002-0.24-0.032s-0.14-0.089-0.185-0.159c-0.045-0.070-0.070-0.152-0.070-0.236-0.051-0.563 0.148-1.205 0.685-1.457 0.81-0.422 1.958 0.080 2.102 1.020 0.109 0.715-0.238 1.379-0.662 1.935 0.313-0.113 0.636-0.195 0.964-0.246 1.227-0.217 2.012-1.353 1.559-2.494-0.043 0.063-0.102 0.114-0.17 0.147s-0.144 0.047-0.22 0.040c-0.076-0.007-0.148-0.033-0.21-0.078s-0.111-0.104-0.143-0.174c-0.032-0.070-0.044-0.147-0.037-0.224s0.035-0.15 0.079-0.212 0.104-0.112 0.173-0.143c0.069-0.031 0.145-0.043 0.221-0.035 0.061 0.007 0.12 0.028 0.172 0.061s0.097 0.076 0.132 0.128c0.731 1.107 0.311 2.329-0.662 2.931 0.41 0.008 0.818 0.071 1.212 0.187 2.161 0.918 0.643 3.497-1.341 2.477-0.084-0.039-0.154-0.104-0.198-0.186s-0.062-0.177-0.049-0.269c0.013-0.093 0.054-0.179 0.119-0.246s0.149-0.11 0.24-0.125c0.091-0.014 0.185 0.002 0.266 0.046s0.147 0.114 0.186 0.198c0.039 0.085 0.051 0.18 0.032 0.272s-0.065 0.175-0.134 0.238c0.209 0.069 0.432 0.087 0.649 0.053s0.424-0.119 0.604-0.249c0.221-0.17 0.368-0.421 0.408-0.699s-0.029-0.562-0.194-0.788c-0.358-0.465-0.981-0.618-1.547-0.639-1.185-0.046-2.419 0.252-3.35 1.020-0.109 0.091-0.214 0.187-0.313 0.287 0.142-0.026 0.287-0.021 0.426 0.016s0.269 0.104 0.38 0.196 0.201 0.209 0.263 0.341c0.062 0.132 0.096 0.275 0.098 0.421 0.001 0.021 0.001 0.042 0 0.063v0.037c-0.010 0.085-0.044 0.166-0.099 0.231s-0.127 0.113-0.209 0.137c-0.081 0.024-0.168 0.022-0.248-0.004s-0.152-0.076-0.205-0.143-0.085-0.149-0.092-0.234c-0.007-0.086 0.011-0.171 0.051-0.247s0.103-0.137 0.178-0.176c0.075-0.040 0.16-0.056 0.244-0.047 0.020 0.003 0.040 0.007 0.060 0.013-0.071-0.102-0.163-0.187-0.27-0.249s-0.226-0.099-0.349-0.109c-0.123-0.010-0.246 0.008-0.361 0.052s-0.22 0.113-0.305 0.203c-0.87 1.142-1.262 2.651-1.324 4.077h-0.306c0.025-0.634 0.12-1.264 0.283-1.877 0.212-0.807 0.568-1.567 1.052-2.242 0.147-0.196 0.303-0.385 0.469-0.565z"></path>
<path fill="#e4e5ea" style="fill: var(--color2, #e4e5ea)" d="M43.725 7.126c-1.285 0.589-1.392 1.685-1.392 1.685-1.022 6.404-8.751 4.749-8.751 4.749 4.449-1.17 6.163-5.219 6.264-5.48 0 0 0.868-0.652 3.88-0.955z"></path>
<path fill="#e4e5ea" style="fill: var(--color2, #e4e5ea)" d="M36.634 11.081c0 0-3.485 3.344-12.793 2.809l-0.829-1.222c0 0 8.383 1.379 13.631-1.587z"></path>
<path fill="#6b99c3" style="fill: var(--color1, #6b99c3)" d="M4.192 31.915v-3.434h1.81v0.524h-1.168v0.8h1.071v0.524h-1.071v1.065h1.168v0.52h-1.81z"></path>
<path fill="#6b99c3" style="fill: var(--color1, #6b99c3)" d="M7.346 31.915v-3.434h1.026l0.452 2.24 0.45-2.24h1.024v3.434h-0.595v-3.107h-0.017l-0.643 3.116h-0.454l-0.643-3.107v3.099h-0.6z"></path>
<path fill="#6b99c3" style="fill: var(--color1, #6b99c3)" d="M11.701 31.915v-3.434h1.215c0.167-0.003 0.331 0.045 0.471 0.137 0.136 0.088 0.244 0.213 0.313 0.361 0.072 0.159 0.108 0.332 0.105 0.507 0.002 0.178-0.035 0.355-0.107 0.518-0.069 0.153-0.179 0.283-0.317 0.376-0.141 0.094-0.307 0.143-0.476 0.139h-0.563v1.396h-0.641zM12.344 30.006h0.323c0.066 0.005 0.133-0.004 0.195-0.027s0.119-0.059 0.167-0.106c0.088-0.106 0.131-0.242 0.122-0.381 0.009-0.137-0.035-0.272-0.122-0.376-0.048-0.046-0.105-0.082-0.168-0.104s-0.129-0.032-0.195-0.027h-0.323v1.020z"></path>
<path fill="#6b99c3" style="fill: var(--color1, #6b99c3)" d="M15.167 30.843v-1.246c-0.004-0.186 0.023-0.371 0.079-0.548 0.045-0.139 0.124-0.265 0.229-0.365 0.1-0.091 0.219-0.16 0.347-0.2 0.292-0.084 0.601-0.084 0.893 0 0.126 0.039 0.243 0.106 0.341 0.196 0.105 0.1 0.183 0.226 0.225 0.365 0.053 0.179 0.078 0.365 0.075 0.552v1.246c0.003 0.186-0.022 0.372-0.075 0.55-0.042 0.138-0.121 0.262-0.227 0.359-0.099 0.087-0.215 0.152-0.341 0.189-0.145 0.041-0.295 0.061-0.446 0.059-0.734 0-1.101-0.386-1.101-1.157zM15.822 30.924c0 0.37 0.148 0.555 0.446 0.555 0.061 0.003 0.121-0.008 0.177-0.033s0.104-0.063 0.143-0.111c0.083-0.12 0.123-0.265 0.113-0.411v-1.4c0.010-0.154-0.030-0.306-0.113-0.435-0.036-0.051-0.085-0.091-0.14-0.118s-0.117-0.039-0.179-0.036c-0.298 0-0.446 0.191-0.446 0.576v1.413z"></path>
<path fill="#6b99c3" style="fill: var(--color1, #6b99c3)" d="M18.596 28.482h0.643l0.39 2.87 0.428-2.87h0.681l0.428 2.87 0.386-2.87h0.643l-0.546 3.434h-0.9l-0.336-2.392-0.349 2.392h-0.908l-0.559-3.434z"></path>
<path fill="#6b99c3" style="fill: var(--color1, #6b99c3)" d="M23.423 31.915v-3.434h1.812v0.524h-1.168v0.8h1.071v0.524h-1.071v1.065h1.168v0.52h-1.812z"></path>
<path fill="#6b99c3" style="fill: var(--color1, #6b99c3)" d="M26.572 31.915v-3.434h1.317c0.113-0.005 0.227 0.016 0.332 0.059s0.199 0.11 0.277 0.195c0.154 0.174 0.236 0.401 0.229 0.635 0.011 0.201-0.033 0.4-0.129 0.576-0.037 0.064-0.087 0.119-0.148 0.161s-0.129 0.069-0.202 0.080c0.082 0.015 0.16 0.046 0.229 0.091 0.059 0.038 0.109 0.090 0.144 0.152 0.032 0.056 0.056 0.116 0.071 0.178s0.021 0.127 0.021 0.191v0.722c0.001 0.041 0.005 0.082 0.013 0.122 0.007 0.030 0.015 0.059 0.026 0.087 0.008 0.025 0.023 0.047 0.043 0.063 0.019 0.013 0.041 0.020 0.064 0.020v0.1h-0.643c-0.062-0.078-0.108-0.169-0.135-0.265s-0.033-0.198-0.020-0.298v-0.396c0.005-0.126-0.025-0.25-0.088-0.359-0.033-0.047-0.078-0.085-0.129-0.11s-0.109-0.035-0.166-0.029h-0.469v1.457h-0.638zM27.215 29.958h0.428c0.119 0.004 0.236-0.038 0.326-0.117 0.047-0.052 0.083-0.113 0.105-0.18s0.030-0.137 0.023-0.208c0.008-0.067 0.001-0.135-0.019-0.199s-0.054-0.123-0.098-0.173c-0.101-0.076-0.226-0.113-0.351-0.104h-0.416l0.002 0.981z"></path>
<path fill="#6b99c3" style="fill: var(--color1, #6b99c3)" d="M30.139 31.915v-3.434h0.643v3.434h-0.643z"></path>
<path fill="#6b99c3" style="fill: var(--color1, #6b99c3)" d="M32.195 31.915v-3.434h0.694l0.938 2.501c-0.062-0.424-0.089-0.852-0.079-1.281v-1.22h0.589v3.434h-0.694l-0.938-2.494c0.064 0.422 0.091 0.849 0.079 1.276v1.218h-0.589z"></path>
<path fill="#6b99c3" style="fill: var(--color1, #6b99c3)" d="M35.726 30.76v-1.122c-0.024-0.328 0.076-0.654 0.281-0.909 0.11-0.108 0.241-0.192 0.385-0.245s0.297-0.075 0.45-0.063c0.141-0.003 0.281 0.018 0.416 0.061 0.106 0.030 0.205 0.080 0.292 0.149s0.159 0.154 0.213 0.251c0.053 0.091 0.091 0.19 0.114 0.294 0.024 0.107 0.035 0.216 0.034 0.326v0.096h-0.643c0.013-0.173-0.022-0.347-0.103-0.5-0.036-0.052-0.085-0.093-0.142-0.119s-0.119-0.038-0.181-0.033c-0.067-0.007-0.134 0.004-0.195 0.031s-0.115 0.069-0.156 0.123c-0.085 0.151-0.123 0.325-0.109 0.498v1.087c-0.012 0.206 0.024 0.411 0.105 0.6 0.036 0.056 0.085 0.103 0.142 0.136s0.122 0.052 0.188 0.055 0.132-0.010 0.192-0.038c0.060-0.028 0.113-0.070 0.153-0.123 0.082-0.154 0.119-0.329 0.107-0.504v-0.228h-0.428v-0.509h1.071v1.842h-0.503v-0.387c-0.059 0.14-0.154 0.263-0.274 0.354-0.134 0.083-0.291 0.123-0.448 0.113-0.127 0.002-0.252-0.024-0.368-0.074-0.115-0.050-0.219-0.124-0.304-0.217-0.1-0.112-0.173-0.245-0.214-0.389-0.051-0.18-0.076-0.367-0.073-0.554z"></path>
</symbol>
</defs>
</svg>
